<svg xmlns="http://www.w3.org/2000/svg" width="128" height="128" viewBox="0 0 128 128"><g fill="none" stroke-linecap="round" stroke-linejoin="round"><path d="M64 38C49 38 39 49 39 63C39 74 46 81 51 89L51 98Q51 102 56 102H72Q77 102 77 98L77 89C82 81 89 74 89 63C89 49 79 38 64 38Z" stroke="#8dce42" stroke-width="7"/><path d="M56 111H72" stroke="#8dce42" stroke-width="5"/><path d="M14 53 24 55" stroke="#ee4d7d" stroke-width="5"/><path d="M27 26 34 35" stroke="#39afe0" stroke-width="5"/><path d="M64 12 64 24" stroke="#efd740" stroke-width="5"/><path d="M101 26 94 35" stroke="#8dce42" stroke-width="5"/><path d="M114 53 104 55" stroke="#28c3c5" stroke-width="5"/></g></svg>